<svg xmlns="http://www.w3.org/2000/svg" width="62" height="113"><g><g><g transform="translate(0 -939.362) translate(.422 935.722)"><title>background</title><path fill="none" d="M-1-1h582v402H-1z"/></g><g transform="translate(0 -939.362) translate(.422 935.722)"><title>Layer 1</title><path d="M44.97 51.97c-.767 0-1.534-.292-2.12-.878-1.172-1.172-1.172-3.07 0-4.243 8.188-8.19 8.188-21.512 0-29.7-1.172-1.17-1.172-3.07 0-4.242 1.172-1.172 3.07-1.17 4.243 0C52.193 18.008 55 24.788 55 32c0 7.212-2.808 13.992-7.907 19.092-.586.586-1.353.88-2.12.88h-.002zm-10.656-5.656c-.768 0-1.535-.293-2.12-.88-1.173-1.17-1.173-3.07 0-4.24 5.068-5.07 5.068-13.317 0-18.386-1.173-1.172-1.173-3.07 0-4.243 1.17-1.172 3.07-1.172 4.242 0 7.408 7.408 7.408 19.462 0 26.87-.586.586-1.353.878-2.12.878h-.002z" fill="#555"/><path d="M26 60c-.52 0-1.032-.203-1.415-.586L9.17 44H2c-1.106 0-2-.895-2-2V22c0-1.105.894-2 2-2h7.17L24.586 4.586c.572-.572 1.432-.743 2.18-.434C27.513 4.462 28 5.192 28 6v52c0 .81-.487 1.538-1.235 1.848-.247.102-.507.152-.765.152z" fill="#555"/></g></g><g><g transform="translate(0 -939.362) translate(.394 992.08)"><title>background</title><path fill="none" d="M-1-1h582v402H-1z"/></g><g transform="translate(0 -939.362) translate(.394 992.08)"><title>Layer 1</title><path d="M60 38.697V44h-5.303L48 37.303 41.303 44H36v-5.303L42.697 32 36 25.303V20h5.303L48 26.697 54.697 20H60v5.303L53.303 32 60 38.697z" fill="#555"/><path d="M26 60c-.52 0-1.032-.203-1.415-.586L9.17 44H2c-1.106 0-2-.895-2-2V22c0-1.105.894-2 2-2h7.17L24.586 4.586c.572-.572 1.432-.743 2.18-.434C27.513 4.462 28 5.192 28 6v52c0 .81-.487 1.538-1.235 1.848-.247.102-.507.152-.765.152z" fill="#555"/></g></g></g></svg>