<svg width="64" height="64" xmlns="http://www.w3.org/2000/svg"><title>background</title><path fill="none" d="M-1-1h582v402H-1z"/><title>Layer 1</title><path fill="#555" d="M60 38.697V44h-5.303L48 37.303 41.303 44H36v-5.303L42.697 32 36 25.303V20h5.303L48 26.697 54.697 20H60v5.303L53.303 32 60 38.697z"/><path fill="#555" d="M26 60c-.52 0-1.032-.203-1.415-.586L9.17 44H2c-1.106 0-2-.895-2-2V22c0-1.105.894-2 2-2h7.17L24.586 4.586c.572-.572 1.432-.743 2.18-.434S28 5.192 28 6v52c0 .81-.487 1.538-1.235 1.848-.247.102-.507.152-.765.152z"/></svg>