<?xml version="1.0" encoding="UTF-8" standalone="no"?>
<!-- Created with Inkscape (http://www.inkscape.org/) -->

<svg
   xmlns:dc="http://purl.org/dc/elements/1.1/"
   xmlns:cc="http://creativecommons.org/ns#"
   xmlns:rdf="http://www.w3.org/1999/02/22-rdf-syntax-ns#"
   xmlns:svg="http://www.w3.org/2000/svg"
   xmlns="http://www.w3.org/2000/svg"
   xmlns:sodipodi="http://sodipodi.sourceforge.net/DTD/sodipodi-0.dtd"
   xmlns:inkscape="http://www.inkscape.org/namespaces/inkscape"
   width="62"
   height="113"
   id="svg2"
   version="1.1"
   inkscape:version="0.48.5 r10040"
   sodipodi:docname="New document 1">
  <defs
     id="defs4" />
  <sodipodi:namedview
     id="base"
     pagecolor="#ffffff"
     bordercolor="#666666"
     borderopacity="1.0"
     inkscape:pageopacity="0.0"
     inkscape:pageshadow="2"
     inkscape:zoom="5.4778761"
     inkscape:cx="31"
     inkscape:cy="71.1042"
     inkscape:document-units="px"
     inkscape:current-layer="layer1"
     showgrid="false"
     inkscape:window-width="1244"
     inkscape:window-height="806"
     inkscape:window-x="201"
     inkscape:window-y="62"
     inkscape:window-maximized="0" />
  <metadata
     id="metadata7">
    <rdf:RDF>
      <cc:Work
         rdf:about="">
        <dc:format>image/svg+xml</dc:format>
        <dc:type
           rdf:resource="http://purl.org/dc/dcmitype/StillImage" />
        <dc:title></dc:title>
      </cc:Work>
    </rdf:RDF>
  </metadata>
  <g
     inkscape:label="Layer 1"
     inkscape:groupmode="layer"
     id="layer1"
     transform="translate(0,-939.36218)">
    <g
       id="g3004"
       transform="translate(0.42234493,935.72244)">
      <g
         id="g2987">
        <title
           id="title2989">background</title>
        <rect
           x="-1"
           y="-1"
           width="582"
           height="402"
           id="canvas_background"
           style="fill:none" />
      </g>
      <g
         id="g2992">
        <title
           id="title2994">Layer 1</title>
        <path
           d="m 44.971001,51.971001 c -0.768002,0 -1.535,-0.292999 -2.121002,-0.879002 -1.171997,-1.172001 -1.171997,-3.070999 0,-4.243 8.188,-8.188 8.188,-21.511 0,-29.698 -1.171997,-1.171999 -1.171997,-3.070999 0,-4.242999 1.171997,-1.172 3.071003,-1.171 4.243,0 C 52.193001,18.007 55.001,24.788 55.001,32 c 0,7.212 -2.808998,13.992001 -7.908001,19.091999 -0.585999,0.586002 -1.352997,0.879002 -2.120998,0.879002 l 0,0 -9.99e-4,0 z M 34.314,46.314 c -0.767998,0 -1.535,-0.292999 -2.120998,-0.878998 -1.172001,-1.172001 -1.172001,-3.071003 0,-4.242001 5.069,-5.069 5.069,-13.316 0,-18.385 -1.172001,-1.172001 -1.172001,-3.071001 0,-4.243 1.172001,-1.171999 3.070999,-1.172001 4.243,0 7.408001,7.407999 7.408001,19.462 0,26.870001 C 35.85,46.021001 35.083001,46.313 34.315,46.313 l -9.99e-4,9.99e-4 z"
           id="svg_1"
           inkscape:connector-curvature="0"
           style="fill:#555555" />
        <path
           d="m 26,60 c -0.52,0 -1.032,-0.202999 -1.415001,-0.585999 L 9.171,44 1.999,44 c -1.105,0 -2,-0.895 -2,-2 l 0,-20 c 0,-1.105 0.895,-2 2,-2 L 9.171,20 24.584999,4.586 C 25.157,4.014 26.017,3.843 26.764999,4.152 27.512998,4.461 28,5.191 28,6 l 0,52 c 0,0.808998 -0.487,1.537998 -1.235001,1.848 C 26.517999,59.950001 26.257999,60 26,60 z"
           id="svg_2"
           inkscape:connector-curvature="0"
           style="fill:#555555" />
      </g>
    </g>
    <g
       id="g3032"
       transform="translate(0.39418715,992.08016)">
      <g
         id="g3015">
        <title
           id="title3017">background</title>
        <rect
           x="-1"
           y="-1"
           width="582"
           height="402"
           id="canvas_background-1"
           style="fill:none" />
      </g>
      <g
         id="g3020">
        <title
           id="title3022">Layer 1</title>
        <path
           d="M 60,38.696999 60,44 54.696999,44 48,37.303001 41.303001,44 36,44 36,38.696999 42.696999,32 36,25.302999 36,20 41.303001,20 48,26.697001 54.696999,20 60,20 60,25.302999 53.303001,32 60,38.696999 z"
           id="svg_1-7"
           inkscape:connector-curvature="0"
           style="fill:#555555" />
        <path
           d="m 26,60 c -0.52,0 -1.032,-0.202999 -1.415001,-0.585999 L 9.171,44 1.999,44 c -1.105,0 -2,-0.895 -2,-2 l 0,-20 c 0,-1.105 0.895,-2 2,-2 L 9.171,20 24.584999,4.586 C 25.157,4.014 26.017,3.843 26.764999,4.152 27.512998,4.461 28,5.191 28,6 l 0,52 c 0,0.808998 -0.487,1.537998 -1.235001,1.848 C 26.517999,59.950001 26.257999,60 26,60 z"
           id="svg_2-4"
           inkscape:connector-curvature="0"
           style="fill:#555555" />
      </g>
    </g>
  </g>
</svg>
