<?xml version="1.0"?>
<svg width="64" height="64" xmlns="http://www.w3.org/2000/svg">

 <g>
  <title>background</title>
  <rect fill="none" id="canvas_background" height="402" width="582" y="-1" x="-1"/>
 </g>
 <g>
  <title>Layer 1</title>
  <path id="svg_1" fill="#555555" d="m60,38.696999l0,5.303001l-5.303001,0l-6.696999,-6.696999l-6.696999,6.696999l-5.303001,0l0,-5.303001l6.696999,-6.696999l-6.696999,-6.697001l0,-5.302999l5.303001,0l6.696999,6.697001l6.696999,-6.697001l5.303001,0l0,5.302999l-6.696999,6.697001l6.696999,6.696999z"/>
  <path id="svg_2" fill="#555555" d="m26,60c-0.52,0 -1.032,-0.202999 -1.415001,-0.585999l-15.413999,-15.414001l-7.172,0c-1.105,0 -2,-0.895 -2,-2l0,-20c0,-1.105 0.895,-2 2,-2l7.172,0l15.413999,-15.414c0.572001,-0.572 1.432001,-0.743 2.18,-0.434s1.235001,1.039 1.235001,1.848l0,52c0,0.808998 -0.487,1.537998 -1.235001,1.848c-0.247,0.102001 -0.507,0.152 -0.764999,0.152z"/>
 </g>
</svg>