<?xml version="1.0"?>
<svg width="64" height="64" xmlns="http://www.w3.org/2000/svg">

 <g>
  <title>background</title>
  <rect fill="none" id="canvas_background" height="402" width="582" y="-1" x="-1"/>
 </g>
 <g>
  <title>Layer 1</title>
  <path id="svg_1" fill="#555555" d="m44.971001,51.971001c-0.768002,0 -1.535,-0.292999 -2.121002,-0.879002c-1.171997,-1.172001 -1.171997,-3.070999 0,-4.243c8.188,-8.188 8.188,-21.511 0,-29.698c-1.171997,-1.171999 -1.171997,-3.070999 0,-4.242999s3.071003,-1.171 4.243,0c5.100002,5.099 7.908001,11.88 7.908001,19.092s-2.808998,13.992001 -7.908001,19.091999c-0.585999,0.586002 -1.352997,0.879002 -2.120998,0.879002l0,0l-0.000999,0zm-10.657001,-5.657001c-0.767998,0 -1.535,-0.292999 -2.120998,-0.878998c-1.172001,-1.172001 -1.172001,-3.071003 0,-4.242001c5.069,-5.069 5.069,-13.316 0,-18.385c-1.172001,-1.172001 -1.172001,-3.071001 0,-4.243s3.070999,-1.172001 4.243,0c7.408001,7.407999 7.408001,19.462 0,26.870001c-0.586002,0.585999 -1.353001,0.877998 -2.121002,0.877998l-0.000999,0.000999z"/>
  <path id="svg_2" fill="#555555" d="m26,60c-0.52,0 -1.032,-0.202999 -1.415001,-0.585999l-15.413999,-15.414001l-7.172,0c-1.105,0 -2,-0.895 -2,-2l0,-20c0,-1.105 0.895,-2 2,-2l7.172,0l15.413999,-15.414c0.572001,-0.572 1.432001,-0.743 2.18,-0.434s1.235001,1.039 1.235001,1.848l0,52c0,0.808998 -0.487,1.537998 -1.235001,1.848c-0.247,0.102001 -0.507,0.152 -0.764999,0.152z"/>
 </g>
</svg>